<?xml version="1.0" encoding="UTF-8"?>
<svg xmlns="http://www.w3.org/2000/svg" xmlns:xlink="http://www.w3.org/1999/xlink" width="600pt" height="300pt" viewBox="0 0 600 300" version="1.1">
<g id="surface1">
<path style="fill:none;stroke-width:1;stroke-linecap:butt;stroke-linejoin:round;stroke:rgb(0%,0%,0%);stroke-opacity:1;stroke-miterlimit:10;" d="M 0 150 C 101.886719 150 152.832031 150 152.832031 150 C 152.832031 150 107.546875 116.039062 107.546875 116.039062 C 107.546875 116.039062 164.152344 93.394531 164.152344 93.394531 C 164.152344 93.394531 141.507812 161.320312 141.507812 161.320312 C 141.507812 161.320312 175.472656 14.152344 175.472656 14.152344 C 175.472656 14.152344 164.152344 150 164.152344 150 C 164.152344 150 186.792969 93.394531 186.792969 93.394531 C 186.792969 93.394531 175.472656 150 175.472656 150 C 175.472656 150 186.792969 150 186.792969 150 C 186.792969 150 198.113281 104.71875 198.113281 104.71875 C 198.113281 104.71875 232.074219 93.394531 232.074219 93.394531 C 232.074219 93.394531 220.753906 150 220.753906 150 C 220.753906 150 232.074219 150 232.074219 150 C 232.074219 150 254.71875 36.792969 254.71875 36.792969 C 254.71875 36.792969 249.054688 93.394531 249.054688 93.394531 C 249.054688 93.394531 288.679688 82.074219 288.679688 82.074219 C 288.679688 82.074219 237.734375 104.71875 237.734375 104.71875 C 237.734375 104.71875 270.566406 150 270.566406 150 C 270.566406 150 322.640625 138.679688 322.640625 138.679688 C 322.640625 138.679688 277.359375 127.359375 277.359375 127.359375 C 277.359375 127.359375 328.300781 93.394531 328.300781 93.394531 C 328.300781 93.394531 311.320312 150 311.320312 150 C 311.320312 150 350.945312 14.152344 350.945312 14.152344 C 350.945312 14.152344 328.300781 150 328.300781 150 C 328.300781 150 367.925781 138.679688 367.925781 138.679688 C 367.925781 138.679688 384.90625 93.394531 384.90625 93.394531 C 384.90625 93.394531 350.945312 93.394531 350.945312 93.394531 C 350.945312 93.394531 339.621094 138.679688 339.621094 138.679688 C 339.621094 138.679688 373.585938 150 373.585938 150 C 373.585938 150 384.90625 104.71875 384.90625 104.71875 C 384.90625 104.71875 418.867188 93.394531 418.867188 93.394531 C 418.867188 93.394531 407.546875 150 407.546875 150 C 407.546875 150 418.867188 150 418.867188 150 C 418.867188 150 441.507812 36.792969 441.507812 36.792969 C 441.507812 36.792969 435.847656 93.394531 435.847656 93.394531 C 435.847656 93.394531 475.472656 82.074219 475.472656 82.074219 C 475.472656 82.074219 424.527344 104.71875 424.527344 104.71875 C 424.527344 104.71875 457.359375 150 457.359375 150 C 457.359375 150 504.90625 150 600 150 "/>
</g>
</svg>
